<svg width="15" height="15" viewBox="0 0 15 15" fill="none" xmlns="http://www.w3.org/2000/svg">
<path d="M12.3488 12.8845C12.2784 12.8845 12.2087 12.8707 12.1437 12.8437C12.0787 12.8167 12.0196 12.7771 11.9699 12.7272L2.27136 3.02993C2.17077 2.92934 2.11426 2.79291 2.11426 2.65065C2.11426 2.50839 2.17077 2.37196 2.27136 2.27136C2.37196 2.17077 2.50839 2.11426 2.65065 2.11426C2.79291 2.11426 2.92934 2.17077 3.02993 2.27136L12.7285 11.9699C12.8032 12.0449 12.8541 12.1404 12.8747 12.2442C12.8952 12.3481 12.8846 12.4557 12.844 12.5536C12.8035 12.6514 12.7349 12.735 12.647 12.7939C12.559 12.8528 12.4555 12.8843 12.3497 12.8845H12.3488Z" fill="black"/>
<path d="M2.65081 12.8845C2.54486 12.8845 2.44129 12.8531 2.35318 12.7943C2.26506 12.7354 2.19635 12.6518 2.15573 12.5539C2.1151 12.4561 2.10438 12.3484 2.12491 12.2445C2.14544 12.1405 2.19632 12.045 2.2711 11.9699L11.9697 2.27136C12.0703 2.17077 12.2067 2.11426 12.349 2.11426C12.4912 2.11426 12.6277 2.17077 12.7282 2.27136C12.8288 2.37196 12.8853 2.50839 12.8853 2.65065C12.8853 2.79291 12.8288 2.92934 12.7282 3.02993L3.02967 12.7285C2.97989 12.7782 2.9208 12.8175 2.85578 12.8443C2.79077 12.871 2.72112 12.8847 2.65081 12.8845Z" fill="black"/>
</svg>
