<svg width="31" height="30" viewBox="0 0 31 30" fill="none" xmlns="http://www.w3.org/2000/svg">
  <path fill-rule="evenodd" clip-rule="evenodd"
    d="M1.08403 29.2372C1.08403 29.2372 3.44782 10.4804 22.3821 7.94356C22.6802 7.90329 22.8892 7.62904 22.8489 7.33193C22.8098 7.03374 22.5355 6.82478 22.2373 6.86396C2.46835 9.51288 0.00444148 29.1023 0.00444148 29.1023C-0.033649 29.3994 0.177481 29.6725 0.475675 29.7095C0.773869 29.7476 1.04594 29.5354 1.08403 29.2372ZM14.0402 21.4015C14.2307 21.3133 14.3537 21.1239 14.3558 20.9139C14.358 20.7039 14.2394 20.5112 14.0511 20.4187C14.0511 20.4187 9.78716 18.3564 7.95338 18.3357C6.57015 18.3205 5.43397 19.4316 5.41873 20.8149C5.40349 22.1981 6.51465 23.3332 7.89788 23.3484C9.73166 23.3691 14.0402 21.4015 14.0402 21.4015ZM18.6078 17.4694C18.8124 17.4216 18.9713 17.2616 19.0159 17.0559C19.0606 16.8513 18.9833 16.638 18.8179 16.5096C18.8179 16.5096 15.06 13.6256 13.2686 13.2338C11.917 12.9378 10.5805 13.7953 10.2845 15.147C9.9885 16.4987 10.8461 17.8351 12.1977 18.1311C13.9891 18.5229 18.6078 17.4694 18.6078 17.4694ZM5.58089 7.7629C5.53518 7.5583 5.37738 7.39723 5.17278 7.34934C4.96818 7.30146 4.75487 7.37546 4.62318 7.53871C4.62318 7.53871 1.68369 11.2531 1.26578 13.039C0.950174 14.3863 1.78816 15.7358 3.13439 16.0514C4.48171 16.3659 5.8312 15.529 6.1468 14.1817C6.56471 12.3958 5.58089 7.7629 5.58089 7.7629ZM25.2247 12.5318C25.4184 12.4502 25.5479 12.2652 25.5577 12.0552C25.5675 11.8462 25.4554 11.6492 25.2704 11.5502C25.2704 11.5502 21.0815 9.33767 19.2499 9.25278C17.8678 9.18857 16.6935 10.2584 16.6293 11.6405C16.5651 13.0216 17.6349 14.1958 19.017 14.26C20.8486 14.346 25.2247 12.5318 25.2247 12.5318ZM13.0423 2.26916C13.0401 2.06021 12.9171 1.86976 12.7267 1.78161C12.5362 1.69345 12.312 1.72284 12.1499 1.8567C12.1499 1.8567 8.52038 4.90067 7.74987 6.56468C7.16872 7.82058 7.71613 9.31155 8.97203 9.8927C10.2268 10.4739 11.7178 9.92644 12.299 8.67054C13.0695 7.00653 13.0423 2.26916 13.0423 2.26916ZM30.7293 6.92708C30.9111 6.82152 31.0155 6.62127 30.9981 6.41232C30.9807 6.20337 30.8447 6.02271 30.6477 5.9487C30.6477 5.9487 26.9268 4.56547 25.3945 4.69281C24.1973 4.79184 23.306 5.84423 23.4061 7.04136C23.5052 8.23849 24.5576 9.1298 25.7547 9.03077C27.287 8.90344 30.7293 6.92708 30.7293 6.92708ZM22.7096 0.76731C22.7956 0.575769 22.764 0.35158 22.628 0.1916C22.4931 0.0316198 22.2765 -0.0358549 22.0741 0.01856C22.0741 0.01856 17.5021 1.25596 16.1037 2.4422C15.0491 3.33787 14.9196 4.92026 15.8142 5.97591C16.7098 7.03047 18.2922 7.15998 19.3468 6.26431C20.7453 5.07806 22.7096 0.76731 22.7096 0.76731Z"
    fill="black" />
</svg>