<svg width="253" height="38" viewBox="0 0 253 38" fill="none" xmlns="http://www.w3.org/2000/svg">
<g clip-path="url(#clip0_494_629)">
<path d="M60.71 19.19C60.71 14.32 60.77 9.44003 60.69 4.57003C60.64 1.22003 62.65 0.120032 65.87 0.670032C66.41 0.760032 66.95 0.970032 67.46 1.19003C68.68 1.73003 69.91 1.73003 71.05 1.13003C75.62 -1.28997 80.92 0.550033 83.1 5.79003C85.71 12.05 85.71 18.37 82.13 24.33C79.98 27.9 76.36 29.07 72.35 27.9C72.12 27.83 71.89 27.76 71.66 27.7C69.76 27.2 68.98 27.78 68.88 29.78C68.8 31.3 68.75 32.81 68.68 34.33C68.57 36.63 67.43 37.72 65.11 37.77C64.79 37.77 64.47 37.77 64.15 37.77C61.99 37.69 60.8 36.58 60.74 34.42C60.64 30.31 60.61 26.19 60.56 22.08C60.55 21.12 60.56 20.16 60.56 19.2C60.61 19.2 60.66 19.2 60.7 19.2L60.71 19.19ZM68.58 14.86C68.78 15.74 68.99 17.29 69.48 18.74C69.96 20.16 70.93 21.24 72.63 21.23C74.34 21.23 75.22 20.1 75.77 18.71C76.82 16.06 76.9 13.32 76.09 10.61C75.82 9.69003 75.25 8.79003 74.61 8.07003C73.49 6.83003 71.77 6.91003 70.58 8.07003C68.86 9.77003 68.78 11.98 68.58 14.85V14.86Z" fill="black"/>
<path d="M196.09 14.1299C196.09 10.7699 196.05 7.4099 196.1 4.0599C196.14 1.7599 197.29 0.629899 199.47 0.549899C202.34 0.439899 203.54 1.3099 203.81 3.8099C204 5.5999 204.05 7.3999 204.26 9.1799C204.31 9.6299 204.71 10.0399 204.95 10.4599C205.32 10.1299 205.85 9.8799 206.03 9.4699C206.67 8.0099 207.28 6.5199 207.75 4.9999C209.25 0.0498991 210.7 0.679899 214.67 0.419899C215.38 0.369899 216.11 0.499899 216.82 0.559899C218.64 0.719899 219.84 1.8099 219.86 3.6499C219.91 10.6399 219.91 17.6399 219.86 24.6299C219.85 26.4499 218.6 27.5699 216.78 27.6599C216.03 27.6999 215.24 27.7099 214.52 27.5299C213.2 27.1999 212.38 26.3099 212.23 24.9199C212.05 23.1699 211.95 21.4099 211.73 19.6699C211.67 19.2299 211.26 18.8399 211.01 18.4199C210.63 18.7699 210.08 19.0399 209.89 19.4799C209.23 21.0199 208.69 22.6199 208.11 24.1899C207.12 26.8899 206.19 27.5899 203.34 27.6999C202.11 27.7399 200.87 27.7299 199.63 27.6899C197.28 27.5999 196.15 26.5299 196.11 24.2099C196.05 20.8499 196.1 17.4999 196.09 14.1399V14.1299Z" fill="black"/>
<path d="M173.84 27.92C172.21 27.84 170.57 27.78 168.94 27.67C167.12 27.54 165.91 26.43 165.9 24.6C165.85 17.61 165.85 10.63 165.9 3.63999C165.91 1.85999 167.09 0.609992 168.83 0.599992C172.5 0.579992 176.18 0.549992 179.82 0.879992C181.44 1.02999 183.15 1.80999 184.52 2.73999C187.12 4.51999 187.69 8.17999 186.09 10.9C185.97 11.11 185.83 11.31 185.7 11.51C184.56 13.29 184.59 13.84 185.91 15.45C186.95 16.72 187.64 18.12 187.71 19.8C187.88 24.2 184.76 27.37 179.84 27.65C177.85 27.76 175.85 27.67 173.85 27.67C173.85 27.75 173.85 27.84 173.85 27.92H173.84ZM176.42 21.23C177.96 21.24 178.88 20.49 178.86 19.22C178.85 18 177.84 17.13 176.43 17.11C175.07 17.09 174.28 17.81 174.26 19.11C174.23 20.48 175 21.23 176.42 21.24V21.23ZM177.88 9.09999C177.9 8.18999 177.18 7.43999 176.24 7.39999C175.26 7.35999 174.43 8.12999 174.43 9.06999C174.43 9.98999 175.15 10.65 176.15 10.66C177.19 10.66 177.87 10.06 177.89 9.09999H177.88Z" fill="black"/>
<path d="M141.65 17.93C141.65 20.09 141.7 22.25 141.64 24.4C141.58 26.49 140.38 27.65 138.29 27.65C137.31 27.65 136.28 27.54 135.35 27.24C133.9 26.77 132.55 26.77 131.16 27.41C129.42 28.21 127.58 28.56 125.67 28.3C121.48 27.71 118.66 23.88 119.19 19.51C119.76 14.8 123.81 11.18 128.58 11.09C129.41 11.07 130.26 10.98 131.07 10.78C131.97 10.56 132.66 10.01 132.77 8.99002C132.86 8.06002 132.5 7.17002 131.65 6.94002C130.9 6.74002 129.89 6.84001 129.21 7.20002C128.4 7.64002 127.83 8.51002 127.14 9.17002C126.15 10.12 123.43 10.18 122.07 9.29002C120.78 8.44001 120.44 7.13002 121.2 5.35002C122.23 2.91002 124.12 1.22002 126.63 0.660015C128.73 0.190015 131.02 -0.0499846 133.14 0.240015C138.26 0.940015 141.4 4.68002 141.63 10C141.74 12.63 141.65 15.27 141.65 17.91C141.65 17.91 141.66 17.91 141.67 17.91L141.65 17.93ZM132.78 18.56C132.78 17.41 132.07 16.67 130.95 16.66C129.15 16.63 127.68 18.01 127.69 19.73C127.69 21.1 128.5 21.92 129.81 21.9C131.29 21.87 132.79 20.19 132.78 18.56Z" fill="black"/>
<path d="M51.17 17.6C51.17 19.84 51.22 22.08 51.16 24.31C51.1 26.53 49.9 27.67 47.65 27.66C46.74 27.66 45.8 27.57 44.94 27.29C43.32 26.76 41.84 26.9 40.29 27.56C37.21 28.86 34.18 28.81 31.45 26.66C28.25 24.14 27.82 17.88 30.63 14.94C32.85 12.62 35.35 10.87 38.8 11.08C39.42 11.12 40.07 10.94 40.69 10.78C41.59 10.53 42.3 10.04 42.42 9.00998C42.55 7.97998 41.94 7.33998 41.16 6.86998C40.31 6.35998 39.43 6.54998 38.7 7.14998C38.09 7.65998 37.56 8.26998 36.99 8.82998C35.54 10.28 32.6 10.28 31.12 8.82998C30.25 7.97998 30.38 6.90998 30.63 5.89998C31.02 4.27998 32.02 3.02998 33.33 2.03998C37 -0.720017 43.7 -0.700017 47.35 2.07998C49.86 3.98998 50.96 6.63998 51.11 9.66998C51.25 12.3 51.14 14.94 51.14 17.58C51.14 17.58 51.15 17.58 51.16 17.58L51.17 17.6ZM37.25 19.66C37.25 20.94 38.19 21.9 39.41 21.89C40.85 21.87 42.46 20.05 42.48 18.43C42.49 17.37 41.71 16.66 40.52 16.65C38.83 16.63 37.24 18.1 37.25 19.66Z" fill="black"/>
<path d="M229.69 14.0001C229.69 10.6801 229.64 7.37007 229.71 4.05007C229.76 1.56007 230.98 0.540074 233.69 0.540074C236.38 0.540074 237.53 1.57007 237.66 4.08007C237.72 5.24007 237.78 6.39007 237.86 7.55007C237.99 9.46007 238.97 10.3901 240.85 10.4001C242.79 10.4101 243.78 9.46007 243.91 7.49007C243.99 6.21007 244.03 4.93007 244.13 3.66007C244.27 1.78007 245.4 0.670074 247.29 0.560074C247.89 0.520074 248.49 0.530074 249.09 0.560074C251.04 0.670074 252.18 1.79007 252.28 3.75007C252.38 5.70007 252.46 7.66007 252.46 9.62007C252.44 14.4601 252.39 19.2901 252.3 24.1301C252.25 26.5901 251.09 27.6501 248.62 27.7001C248.18 27.7001 247.74 27.7101 247.3 27.6801C245.4 27.5601 244.27 26.4601 244.14 24.5801C244.05 23.3401 243.99 22.1101 243.94 20.8701C243.85 18.6101 242.9 17.5801 240.87 17.6001C238.89 17.6101 237.95 18.6201 237.86 20.8101C237.81 22.0501 237.75 23.2901 237.66 24.5201C237.53 26.4701 236.39 27.5801 234.43 27.6801C233.95 27.7101 233.47 27.7101 232.99 27.6801C230.98 27.5801 229.78 26.4601 229.74 24.4301C229.68 20.9501 229.72 17.4801 229.72 14.0001C229.72 14.0001 229.72 14.0001 229.71 14.0001H229.69Z" fill="black"/>
<path d="M0.0100243 14.11C0.0100243 10.76 -0.0199757 7.39997 0.0300243 4.04997C0.0600243 1.89997 1.14002 0.729967 3.05002 0.559967C6.10002 0.289967 7.49002 1.08997 8.00002 3.43997C8.13002 4.01997 8.11002 4.64997 8.30002 5.20997C8.48002 5.73997 8.85002 6.19997 9.13002 6.68997C9.60002 6.36997 10.18 6.13997 10.53 5.71997C11.05 5.07997 11.48 4.32997 11.83 3.56997C13.41 0.0899665 16.59 0.129967 19.86 0.859967C20.9 1.08997 21.31 2.12997 20.93 3.17997C20.64 3.99997 20.21 4.77997 19.75 5.51997C18.6 7.34997 17.4 9.13997 16.22 10.94C15.08 12.69 15.03 14.43 16.2 16.21C17.59 18.31 18.94 20.43 20.29 22.56C20.72 23.23 21.13 23.93 21.42 24.67C22 26.13 21.31 27.44 19.77 27.59C18.31 27.73 16.81 27.71 15.35 27.56C13.88 27.41 12.99 26.31 12.23 25.15C11.53 24.08 10.95 22.93 10.17 21.92C9.46002 20.98 8.70002 21.18 8.40002 22.32C8.19002 23.13 8.13002 23.97 7.97002 24.8C7.89002 25.23 7.79002 25.67 7.60002 26.06C6.88002 27.48 4.87002 28.09 2.57002 27.62C1.08002 27.32 0.0800242 26.21 0.0500243 24.55C-0.00997575 21.08 0.0300243 17.6 0.0300243 14.13C0.0300243 14.13 0.0200243 14.13 0.0100243 14.13V14.11Z" fill="black"/>
<path d="M97.51 16.43C97.51 14.51 97.54 12.59 97.51 10.67C97.46 8.56995 96.74 7.78995 94.71 7.46995C94.31 7.40995 93.92 7.34995 93.52 7.27995C91.45 6.94995 90.42 5.67995 90.55 3.62995C90.67 1.72995 91.82 0.569951 93.84 0.549951C99.07 0.499951 104.31 0.499951 109.54 0.549951C111.55 0.569951 112.7 1.74995 112.81 3.63995C112.93 5.68995 111.9 6.93995 109.82 7.27995C106.14 7.86995 105.85 8.22995 105.82 12C105.78 16.04 105.75 20.07 105.65 24.11C105.59 26.68 104.39 27.7 101.61 27.69C98.94 27.68 97.77 26.65 97.71 24.1C97.65 21.54 97.7 18.99 97.7 16.43C97.64 16.43 97.58 16.43 97.52 16.43H97.51Z" fill="black"/>
<path d="M68.58 14.86C68.78 11.99 68.86 9.76997 70.58 8.07997C71.77 6.90997 73.49 6.83997 74.61 8.07997C75.26 8.79997 75.82 9.69997 76.09 10.62C76.9 13.33 76.82 16.07 75.77 18.72C75.22 20.11 74.34 21.24 72.63 21.24C70.93 21.24 69.97 20.16 69.48 18.75C68.99 17.3 68.77 15.75 68.58 14.87V14.86Z" fill="white"/>
<path d="M176.42 21.23C175 21.22 174.23 20.47 174.26 19.1C174.28 17.8 175.07 17.08 176.43 17.1C177.84 17.12 178.85 18 178.86 19.21C178.88 20.48 177.96 21.24 176.42 21.22V21.23Z" fill="white"/>
<path d="M177.88 9.09993C177.86 10.0599 177.19 10.6599 176.14 10.6599C175.14 10.6599 174.42 9.99993 174.42 9.06993C174.42 8.12993 175.26 7.35993 176.23 7.39993C177.17 7.43993 177.89 8.17993 177.87 9.09993H177.88Z" fill="white"/>
<path d="M132.77 18.5599C132.77 20.1899 131.28 21.8699 129.8 21.8999C128.49 21.9199 127.68 21.0999 127.68 19.7299C127.68 18.0099 129.14 16.6299 130.94 16.6599C132.06 16.6799 132.77 17.4099 132.77 18.5599Z" fill="white"/>
<path d="M37.25 19.6601C37.24 18.0901 38.83 16.6301 40.52 16.6501C41.71 16.6601 42.49 17.3701 42.48 18.4301C42.46 20.0501 40.85 21.8801 39.41 21.8901C38.19 21.9001 37.26 20.9501 37.25 19.6601Z" fill="white"/>
</g>
<defs>
<clipPath id="clip0_494_629">
<rect width="252.45" height="37.78" fill="white"/>
</clipPath>
</defs>
</svg>
