<svg width="297" height="38" viewBox="0 0 297 38" fill="none" xmlns="http://www.w3.org/2000/svg">
<g clip-path="url(#clip0_14_245)">
<path d="M0 23.4323C0 20.6755 0 17.9329 0 15.1761C0 14.6276 0.02813 14.0791 0.11252 13.5305C0.39382 11.6599 1.04081 11.041 2.93958 10.8441C3.31934 10.8019 3.74129 10.7879 4.10698 10.8863C6.69494 11.5896 9.15631 11.4208 11.7021 10.4644C13.6149 9.74705 15.5278 10.3378 17.1874 11.463C18.833 12.5741 20.3239 12.4897 21.9976 11.463C25.2185 9.46575 28.8895 9.91583 30.9992 12.4335C32.1244 13.7837 32.5464 15.4152 32.7152 17.1171C32.8418 18.4814 32.9261 19.8598 32.9402 21.2241C32.9683 25.0357 32.9965 28.8473 32.9261 32.6589C32.8699 35.8235 30.4507 37.2863 27.5674 35.9361C26.9767 35.6688 26.4703 34.9234 26.2312 34.2905C25.964 33.5872 25.964 32.7433 25.9499 31.9697C25.9218 28.1159 25.9499 24.2762 25.9077 20.4224C25.9077 19.1706 25.7952 17.9047 24.7544 16.9483C23.8542 16.1326 22.6024 16.1044 21.6601 16.8921C20.5068 17.8485 20.1551 19.1565 20.0426 20.563C19.9864 21.2663 20.0004 21.9695 20.0004 22.6868C20.0004 25.9077 19.9864 29.1286 20.0004 32.3495C20.0004 35.9501 18.3126 36.7659 14.9089 36.0205C14.276 35.8798 13.629 35.0359 13.3055 34.3608C12.982 33.6857 13.0101 32.8277 13.0101 32.0541C12.982 28.3972 13.0101 24.7403 12.982 21.0975C12.982 20.3099 12.9117 19.5222 12.7569 18.7627C12.4897 17.3703 11.6317 16.5264 10.4784 16.3998C9.38135 16.2732 8.19989 16.9483 7.73574 18.2282C7.35599 19.2831 7.13095 20.4364 7.08876 21.5476C6.9903 24.3746 7.04656 27.2017 7.04656 30.0288C7.04656 30.8586 7.04656 31.6744 7.04656 32.5042C7.04656 36.2314 4.89462 36.7518 1.81438 35.9923C1.20959 35.8376 0.61886 35.0078 0.33756 34.3467C0.042195 33.6575 0.05626 32.8136 0.042195 32.026C0.014065 29.1567 0.042195 26.2875 0.042195 23.4182L0 23.4323Z" fill="black"/>
<path d="M63.6158 19.7613C63.5595 18.3267 63.3767 16.8639 63.0391 15.4574C62.4484 12.9961 60.9575 11.1817 58.6227 10.1268C55.9222 8.90315 53.1374 8.52339 50.24 9.21258C46.8503 10.0283 44.2202 11.7021 43.4044 15.373C42.898 17.7078 43.1793 18.0595 45.5985 18.0454C46.3721 18.0454 47.1738 17.9751 47.9333 17.8344C49.0585 17.6375 49.9446 17.089 50.5635 16.0482C51.2667 14.8667 52.4341 14.4166 53.5593 14.6557C54.7548 14.923 55.5987 15.8794 55.8238 17.2296C56.0629 18.6221 55.5143 19.4097 54.136 19.6488C52.2091 19.9864 50.254 20.2395 48.3412 20.7037C43.6154 21.857 41.365 25.2326 41.9416 30.0569C42.4058 33.8826 45.1906 36.358 49.0023 36.4424C50.9854 36.4846 52.8139 36.0908 54.4876 34.9937C55.0643 34.6139 55.7394 34.2483 56.2598 34.9656C56.9068 35.8517 57.7647 35.9923 58.7493 35.9642C59.8042 35.9361 60.8731 35.9642 61.928 35.9501C63.2641 35.9079 63.5876 35.5985 63.6017 34.2483C63.6298 31.7025 63.6017 29.1427 63.6017 26.5969C63.6017 24.3184 63.672 22.0398 63.5736 19.7754L63.6158 19.7613ZM55.8378 26.4984C55.6691 28.0315 55.1346 29.3818 53.7703 30.2538C52.4341 31.1118 51.0276 31.0414 50.1134 30.0991C49.2414 29.1849 49.2554 27.3283 50.1415 26.189C50.9573 25.1341 52.1387 24.6419 54.0094 24.5856C55.3878 24.5434 55.9925 25.1482 55.8519 26.4984H55.8378Z" fill="black"/>
<path d="M209.948 27.7783C209.751 24.4168 209.723 21.0272 209.329 17.6937C208.935 14.3885 207.121 11.913 203.858 10.7878C200.778 9.7189 197.655 9.76109 194.631 10.9847C192.128 11.9974 190.595 13.9103 190.088 16.5826C189.877 17.75 190.313 18.3407 191.481 18.4111C192.493 18.4814 193.548 18.5658 194.533 18.3689C195.18 18.2423 195.77 17.6797 196.291 17.2155C196.713 16.8217 196.924 16.2169 197.332 15.809C198.302 14.8526 199.807 14.6838 200.932 15.3168C202.086 15.9778 202.958 17.8766 202.662 19.1846C202.339 20.6193 201.143 20.6755 200.004 20.8724C198.147 21.1819 196.249 21.3788 194.462 21.8992C189.315 23.3901 187.135 28.58 189.568 33.3621C190.454 35.1062 191.86 36.2314 193.801 36.6112C196.432 37.1316 198.865 36.7659 201.017 35.0359C202.015 34.2342 202.451 34.417 203.309 35.2891C203.802 35.7954 204.561 36.1751 205.25 36.3299C206.038 36.5127 206.896 36.4002 207.712 36.3721C209.231 36.3158 209.737 35.8235 209.765 34.2623C209.793 32.1104 209.765 29.9444 209.765 27.7924C209.821 27.7924 209.892 27.7924 209.948 27.7924V27.7783ZM202.676 26.9485C202.536 28.4253 202.029 29.7615 200.946 30.8305C199.427 32.3354 197.627 32.5323 196.375 31.2946C195.138 30.085 195.152 27.7502 196.403 26.3718C197.571 25.0779 199.146 25.0075 200.51 24.8528C202.198 24.8528 202.831 25.4858 202.69 26.9485H202.676Z" fill="black"/>
<path d="M121.831 26.7235C121.831 28.7207 121.859 30.732 121.831 32.7292C121.775 36.133 120.045 37.5254 116.866 36.3158C114.672 35.486 112.872 35.8657 110.776 36.5831C105.614 38.3412 101.296 35.4438 101.043 30.0991C100.818 25.2748 104.897 22.3352 108.554 21.7164C109.679 21.5335 110.804 21.4069 111.929 21.21C113.181 20.999 114.151 20.3521 114.503 19.1003C114.784 18.0735 114.123 16.7795 113.167 16.1607C112.21 15.5559 110.79 15.6403 109.749 16.4139C109.243 16.7936 108.835 17.2718 108.329 17.6516C107.864 18.0032 107.386 18.3548 106.852 18.5658C105.487 19.0721 103.814 18.7346 103.139 17.8766C102.52 17.103 102.703 15.5278 103.546 14.2338C104.911 12.1381 106.95 11.1114 109.313 10.7457C111.746 10.3659 114.18 10.38 116.486 11.3927C119.581 12.7429 121.296 15.2324 121.564 18.4955C121.789 21.2241 121.761 26.7235 121.831 26.7235ZM110.734 32.0823C112.956 32.0541 115.136 29.1708 114.405 27.0611C114.194 26.4563 113.518 25.8093 112.9 25.5983C110.846 24.9232 108.3 26.6954 108.005 28.8332C107.766 30.5632 109.06 32.0963 110.72 32.0682L110.734 32.0823Z" fill="black"/>
<path d="M146.824 23.2073C146.824 20.1833 146.698 17.1593 146.867 14.1494C146.993 12.0115 148.386 10.7879 150.495 10.9848C153.435 11.252 156.248 10.7597 159.131 10.4222C160.678 10.2393 162.366 10.8301 163.913 11.3364C165.573 11.8709 167.106 11.9271 168.724 11.2801C170.707 10.4925 172.774 9.90177 174.898 10.7457C177.514 11.7865 178.836 13.854 179.089 16.5404C179.329 19.1565 179.343 21.7867 179.343 24.4168C179.343 27.2017 179.272 29.9866 179.089 32.7714C178.977 34.3608 177.669 35.5704 176.305 35.6829C174.715 35.8235 173.267 34.839 172.887 33.2356C172.662 32.2932 172.577 31.2946 172.549 30.3241C172.437 26.9907 172.423 23.6573 172.268 20.3239C172.24 19.6207 171.902 18.8612 171.494 18.2704C170.468 16.7655 168.949 16.7936 167.767 18.2001C166.487 19.7473 166.515 21.646 166.431 23.4604C166.318 25.964 166.431 28.4816 166.361 30.9993C166.332 32.2932 166.234 33.5872 165.249 34.614C163.505 36.4283 160.777 35.8657 159.989 33.4606C159.722 32.6589 159.609 31.7728 159.581 30.9149C159.525 28.13 159.595 25.3311 159.525 22.5462C159.497 21.4632 159.314 20.3521 159.019 19.3112C158.709 18.2142 158.048 17.314 156.726 17.3C155.713 17.3 154.504 18.2282 154.208 19.4519C153.927 20.6334 153.73 21.8429 153.688 23.0525C153.604 25.6405 153.688 28.2425 153.632 30.8305C153.618 31.6744 153.449 32.5464 153.21 33.3622C152.704 35.05 151.564 35.7954 149.862 35.6829C148.287 35.5704 147.049 34.5296 146.881 32.8558C146.67 30.8305 146.67 28.7911 146.599 26.7516C146.557 25.5702 146.599 24.3887 146.599 23.2213C146.67 23.2213 146.74 23.2213 146.81 23.2213L146.824 23.2073Z" fill="black"/>
<path d="M83.1239 36.6815C79.4951 36.5127 76.7243 36.0064 74.6427 33.6575C73.4472 32.3073 73.18 30.7883 74.0239 29.7193C74.9381 28.5519 76.6399 28.2706 78.1871 29.1005C79.1154 29.5927 79.9452 30.3523 80.9298 30.6758C81.6611 30.9149 82.6598 30.8867 83.3489 30.5632C83.785 30.3523 84.0241 29.4099 84.0663 28.7629C84.0944 28.355 83.7006 27.7502 83.3208 27.5252C82.3644 26.9485 81.3377 26.4422 80.2828 26.0765C76.6681 24.8247 73.9957 22.6587 73.2784 18.7205C72.6174 15.1199 74.7552 11.7302 78.3137 10.7316C81.6752 9.77518 85.0227 9.94396 88.1451 11.6177C89.0312 12.0959 89.7907 12.9539 90.4096 13.7837C91.1128 14.7401 90.8174 16.4279 90.0439 17.1452C88.9749 18.1438 87.2027 18.3126 85.9932 17.5672C85.3321 17.1593 84.6429 16.7795 83.9537 16.4139C83.152 16.006 82.491 16.2169 82.0268 16.9624C81.5486 17.75 81.6752 18.5658 82.4066 19.0581C83.1661 19.5644 84.0663 19.902 84.9524 20.1973C87.5966 21.0975 89.8329 22.5884 91.3379 24.9513C94.0383 29.1989 92.1114 34.3889 87.3012 35.8235C85.74 36.2877 84.0803 36.4705 83.138 36.6534L83.1239 36.6815Z" fill="black"/>
<path d="M252.438 23.3338C252.438 20.2395 252.312 17.1312 252.481 14.0509C252.593 11.9834 253.971 10.8723 256.025 10.9566C258.528 11.0551 261.004 11.2942 263.522 10.7879C264.956 10.4925 266.18 11.3786 266.489 12.546C266.799 13.6993 266.067 15.0496 264.773 15.7247C263.972 16.1326 263.128 16.4701 262.382 16.9624C259.851 18.6221 259.4 21.2522 259.316 23.9808C259.232 26.2172 259.4 28.4676 259.232 30.6898C259.133 31.9697 258.796 33.32 258.233 34.4592C257.6 35.7251 256.236 35.8798 254.914 35.5844C253.592 35.2891 252.832 34.3467 252.551 33.0809C252.354 32.1667 252.27 31.2102 252.241 30.2819C252.199 27.9612 252.241 25.6546 252.241 23.3338C252.312 23.3338 252.382 23.3338 252.466 23.3338H252.438Z" fill="black"/>
<path d="M241.777 3.23495C241.608 0.731382 240.371 -0.225037 237.853 0.0562627C237.614 0.0843927 237.389 0.126588 237.15 0.154718C235.954 0.323498 235.167 0.998617 235.04 2.18008C234.885 3.57251 234.885 4.99307 234.801 6.39957C234.745 7.41225 234.759 8.45306 234.562 9.43761C234.323 10.6472 233.507 11.1254 232.297 10.9426C231.833 10.8722 231.369 10.7597 230.933 10.605C226.095 8.86095 222.072 11.9552 220.623 15.7669C218.795 20.563 218.725 25.4717 220.412 30.3101C222.185 35.4016 226.545 38.088 231.974 35.5282C233.352 34.8812 234.59 35.05 236.039 35.5422C239.428 36.7237 242.044 36.2174 241.862 31.8572C241.848 31.4634 241.862 31.0696 241.862 30.6757C241.862 26.5125 241.862 22.3493 241.862 18.186C241.862 15.0073 241.862 11.8287 241.862 8.63591C241.862 6.83559 241.918 5.0212 241.805 3.22089L241.777 3.23495ZM233.873 28.2144C233.169 29.438 232.269 30.4788 230.708 30.507C228.978 30.5351 227.895 29.3958 227.276 28.0456C226.629 26.625 224.688 20.3942 228.162 17.4265C229.906 15.7669 232.1 15.795 233.38 17.8203C234.182 19.0862 234.632 20.6755 234.885 22.1805C235.237 24.248 234.956 26.3297 233.887 28.2144H233.873Z" fill="black"/>
<path d="M286.152 25.3873C287.151 25.2748 288.192 25.3873 289.204 25.4436C290.301 25.5139 291.384 25.7811 292.481 25.7671C295.196 25.7249 296.982 24.0371 296.954 21.3366C296.884 15.4293 293.424 9.98616 286.377 10.2393C280.428 10.2393 276.405 13.5587 275.266 19.3816C274.717 22.1946 274.731 25.0076 275.378 27.8065C276.138 31.0415 277.769 33.6716 280.836 35.2328C283.705 36.6956 286.687 36.9769 289.767 36.2174C291.539 35.7814 293.171 35.0078 294.338 33.4888C295.182 32.4058 295.351 30.9852 294.704 30.0991C293.958 29.0724 292.833 28.7911 291.427 29.3115C290.836 29.5224 290.301 29.86 289.725 30.1132C288.937 30.4648 288.163 30.8727 287.334 31.0836C285.632 31.5337 283.649 30.3804 283.339 28.8332C282.988 27.1033 284.127 25.6264 286.152 25.4014V25.3873ZM286.307 15.6544C287.995 15.6544 289.246 16.8358 289.204 18.3689C289.162 19.8739 287.967 20.8584 286.223 20.8443C284.591 20.8303 283.297 19.7191 283.339 18.3689C283.367 16.9202 284.774 15.6262 286.307 15.6403V15.6544Z" fill="black"/>
</g>
<defs>
<clipPath id="clip0_14_245">
<rect width="296.954" height="37.0894" fill="white"/>
</clipPath>
</defs>
</svg>
