<svg width="34" height="29" viewBox="0 0 34 29" fill="none" xmlns="http://www.w3.org/2000/svg">
<path fill-rule="evenodd" clip-rule="evenodd" d="M0.793816 0.146362C-2.96011 11.5059 7.1874 24.2454 18.8796 24.4472C19.0332 24.4501 21.0306 28.7221 21.931 28.0502C22.2053 27.8453 22.1223 27.1365 21.649 26.4857C21.8997 26.1329 22.104 25.7363 22.1307 25.7358C29.4813 25.6089 35.8609 17.6 33.501 10.4585C25.9782 9.43851 20.3003 17.0785 21.6619 24.3638C21.7419 24.7927 31.1904 12.5177 31.3308 12.9425C31.7248 12.9959 23.8794 22.1474 21.1429 25.8031C16.5787 19.7238 3.62623 4.18165 4.24582 4.09748C4.46897 3.42201 19.498 22.9469 19.6254 22.2649C21.7912 10.6765 12.7597 -1.47592 0.793816 0.146362Z" fill="black"/>
</svg>
