<svg width="853" height="131" viewBox="0 0 853 131" fill="none" xmlns="http://www.w3.org/2000/svg">
<path d="M35.9659 52.0739V23.0114H40.8977V52.0739H35.9659ZM23.9006 40.0085V35.0767H52.9631V40.0085H23.9006ZM73.4733 60L93.6409 20.1051V19.7528H70.3909V14.9091H99.2772V20.017L79.1977 60H73.4733Z" fill="black"/>
<path d="M242.023 14.2926C243.872 14.3073 245.722 14.6596 247.571 15.3494C249.42 16.0393 251.108 17.1842 252.635 18.7841C254.161 20.3693 255.387 22.5343 256.312 25.2791C257.237 28.0239 257.699 31.4659 257.699 35.6051C257.699 39.6122 257.317 43.1716 256.554 46.2834C255.805 49.3804 254.719 51.9931 253.295 54.1214C251.886 56.2498 250.169 57.8643 248.143 58.9652C246.133 60.0661 243.857 60.6165 241.318 60.6165C238.794 60.6165 236.54 60.1174 234.559 59.1193C232.592 58.1065 230.978 56.7048 229.715 54.9141C228.468 53.1087 227.668 51.017 227.315 48.6392H232.688C233.172 50.7088 234.133 52.4188 235.572 53.7692C237.025 55.1049 238.94 55.7727 241.318 55.7727C244.797 55.7727 247.542 54.2536 249.553 51.2152C251.578 48.1768 252.591 43.8835 252.591 38.3352H252.239C251.417 39.5682 250.441 40.6323 249.31 41.5277C248.18 42.4231 246.925 43.1129 245.545 43.5973C244.166 44.0817 242.698 44.3239 241.142 44.3239C238.559 44.3239 236.188 43.6854 234.031 42.4084C231.888 41.1167 230.17 39.348 228.879 37.1023C227.602 34.8419 226.963 32.2585 226.963 29.3523C226.963 26.5928 227.58 24.0682 228.812 21.7784C230.06 19.474 231.807 17.6392 234.053 16.2741C236.313 14.9091 238.97 14.2486 242.023 14.2926ZM242.023 19.1364C240.173 19.1364 238.507 19.5987 237.025 20.5234C235.557 21.4335 234.39 22.6664 233.524 24.2223C232.673 25.7635 232.247 27.4735 232.247 29.3523C232.247 31.2311 232.658 32.9411 233.48 34.4822C234.317 36.0088 235.454 37.227 236.893 38.1371C238.346 39.0324 239.997 39.4801 241.847 39.4801C243.241 39.4801 244.54 39.2086 245.744 38.6655C246.947 38.1077 247.997 37.3518 248.892 36.3977C249.802 35.429 250.514 34.3355 251.028 33.1172C251.541 31.8842 251.798 30.5999 251.798 29.2642C251.798 27.5028 251.373 25.8516 250.521 24.3104C249.685 22.7692 248.525 21.5215 247.043 20.5675C245.575 19.6134 243.902 19.1364 242.023 19.1364ZM300.189 14.9091V60H294.729V20.6335H294.465L283.456 27.9432V22.3949L294.729 14.9091H300.189ZM346.109 60.6165C344.26 60.5871 342.41 60.2348 340.561 59.5597C338.711 58.8845 337.023 57.7469 335.497 56.147C333.97 54.5324 332.745 52.3527 331.82 49.608C330.895 46.8485 330.433 43.3845 330.433 39.2159C330.433 35.2235 330.807 31.6861 331.556 28.6037C332.304 25.5066 333.39 22.9013 334.814 20.7876C336.238 18.6593 337.955 17.0447 339.966 15.9439C341.992 14.843 344.274 14.2926 346.814 14.2926C349.338 14.2926 351.584 14.799 353.551 15.8118C355.532 16.8099 357.147 18.2043 358.394 19.995C359.642 21.7857 360.449 23.848 360.816 26.1818H355.444C354.945 24.1562 353.976 22.4756 352.538 21.1399C351.099 19.8042 349.191 19.1364 346.814 19.1364C343.32 19.1364 340.568 20.6555 338.557 23.6939C336.561 26.7322 335.555 30.9962 335.541 36.4858H335.893C336.715 35.2382 337.691 34.174 338.821 33.2933C339.966 32.398 341.229 31.7081 342.608 31.2237C343.988 30.7393 345.448 30.4972 346.99 30.4972C349.573 30.4972 351.936 31.143 354.079 32.4347C356.222 33.7116 357.939 35.4803 359.231 37.7408C360.523 39.9865 361.169 42.5625 361.169 45.4688C361.169 48.2576 360.545 50.8116 359.297 53.1307C358.05 55.4351 356.296 57.2699 354.035 58.6349C351.789 59.9853 349.147 60.6458 346.109 60.6165ZM346.109 55.7727C347.958 55.7727 349.617 55.3104 351.085 54.3857C352.567 53.4609 353.734 52.2206 354.586 50.6648C355.452 49.1089 355.885 47.3769 355.885 45.4688C355.885 43.6046 355.466 41.9093 354.63 40.3828C353.808 38.8416 352.67 37.616 351.217 36.706C349.778 35.7959 348.135 35.3409 346.285 35.3409C344.891 35.3409 343.592 35.6198 342.388 36.1776C341.184 36.7206 340.128 37.4692 339.218 38.4233C338.322 39.3774 337.618 40.4709 337.104 41.7038C336.59 42.9221 336.333 44.2064 336.333 45.5568C336.333 47.3475 336.752 49.0208 337.588 50.5767C338.44 52.1326 339.599 53.3875 341.067 54.3416C342.55 55.2957 344.23 55.7727 346.109 55.7727Z" fill="black"/>
<path d="M292.639 116.616C290.79 116.587 288.94 116.235 287.091 115.56C285.241 114.884 283.554 113.747 282.027 112.147C280.5 110.532 279.275 108.353 278.35 105.608C277.425 102.848 276.963 99.3845 276.963 95.2159C276.963 91.2235 277.337 87.6861 278.086 84.6037C278.835 81.5066 279.921 78.9013 281.344 76.7876C282.768 74.6593 284.486 73.0447 286.496 71.9439C288.522 70.843 290.804 70.2926 293.344 70.2926C295.868 70.2926 298.114 70.799 300.081 71.8118C302.063 72.8099 303.677 74.2043 304.925 75.995C306.172 77.7857 306.98 79.848 307.347 82.1818H301.974C301.475 80.1562 300.507 78.4756 299.068 77.1399C297.63 75.8042 295.722 75.1364 293.344 75.1364C289.85 75.1364 287.098 76.6555 285.087 79.6939C283.091 82.7322 282.086 86.9962 282.071 92.4858H282.423C283.245 91.2382 284.221 90.174 285.352 89.2933C286.496 88.398 287.759 87.7081 289.138 87.2237C290.518 86.7393 291.979 86.4972 293.52 86.4972C296.103 86.4972 298.466 87.143 300.609 88.4347C302.752 89.7116 304.47 91.4803 305.761 93.7408C307.053 95.9865 307.699 98.5625 307.699 101.469C307.699 104.258 307.075 106.812 305.827 109.131C304.58 111.435 302.826 113.27 300.565 114.635C298.32 115.985 295.678 116.646 292.639 116.616ZM292.639 111.773C294.489 111.773 296.147 111.31 297.615 110.386C299.098 109.461 300.264 108.221 301.116 106.665C301.982 105.109 302.415 103.377 302.415 101.469C302.415 99.6046 301.996 97.9093 301.16 96.3828C300.338 94.8416 299.2 93.616 297.747 92.706C296.309 91.7959 294.665 91.3409 292.815 91.3409C291.421 91.3409 290.122 91.6198 288.918 92.1776C287.715 92.7206 286.658 93.4692 285.748 94.4233C284.853 95.3774 284.148 96.4709 283.634 97.7038C283.121 98.9221 282.864 100.206 282.864 101.557C282.864 103.348 283.282 105.021 284.119 106.577C284.97 108.133 286.129 109.388 287.597 110.342C289.08 111.296 290.76 111.773 292.639 111.773ZM335.746 116L355.914 76.1051V75.7528H332.664V70.9091H361.55V76.017L341.471 116H335.746ZM403.589 70.9091V116H398.129V76.6335H397.865L386.856 83.9432V78.3949L398.129 70.9091H403.589Z" fill="black"/>
<path d="M537.611 106.753V102.261L557.426 70.9091H560.685V77.8665H558.483L543.511 101.557V101.909H570.196V106.753H537.611ZM558.835 116V105.388V103.296V70.9091H564.031V116H558.835ZM610.87 116.616C607.846 116.616 605.175 116.081 602.856 115.009C600.551 113.923 598.753 112.433 597.462 110.54C596.17 108.632 595.532 106.459 595.546 104.023C595.532 102.115 595.906 100.353 596.669 98.7386C597.432 97.1094 598.474 95.7517 599.796 94.6655C601.131 93.5646 602.621 92.8674 604.265 92.5739V92.3097C602.107 91.7519 600.39 90.541 599.113 88.6768C597.836 86.7981 597.205 84.6624 597.22 82.2699C597.205 79.9801 597.785 77.9325 598.959 76.1271C600.133 74.3217 601.748 72.898 603.803 71.8558C605.872 70.8137 608.228 70.2926 610.87 70.2926C613.483 70.2926 615.817 70.8137 617.872 71.8558C619.926 72.898 621.541 74.3217 622.715 76.1271C623.904 77.9325 624.506 79.9801 624.521 82.2699C624.506 84.6624 623.853 86.7981 622.561 88.6768C621.284 90.541 619.589 91.7519 617.475 92.3097V92.5739C619.104 92.8674 620.572 93.5646 621.879 94.6655C623.185 95.7517 624.227 97.1094 625.005 98.7386C625.783 100.353 626.179 102.115 626.194 104.023C626.179 106.459 625.519 108.632 624.212 110.54C622.921 112.433 621.123 113.923 618.818 115.009C616.528 116.081 613.879 116.616 610.87 116.616ZM610.87 111.773C612.91 111.773 614.672 111.442 616.154 110.782C617.637 110.121 618.782 109.189 619.589 107.986C620.396 106.782 620.807 105.373 620.822 103.759C620.807 102.056 620.367 100.551 619.501 99.245C618.635 97.9387 617.453 96.9112 615.956 96.1626C614.474 95.4141 612.778 95.0398 610.87 95.0398C608.947 95.0398 607.23 95.4141 605.718 96.1626C604.221 96.9112 603.039 97.9387 602.173 99.245C601.322 100.551 600.904 102.056 600.918 103.759C600.904 105.373 601.293 106.782 602.085 107.986C602.893 109.189 604.045 110.121 605.542 110.782C607.039 111.442 608.815 111.773 610.87 111.773ZM610.87 90.3722C612.485 90.3722 613.916 90.0492 615.163 89.4034C616.426 88.7576 617.416 87.8549 618.136 86.6953C618.855 85.5357 619.222 84.178 619.237 82.6222C619.222 81.0956 618.862 79.7673 618.158 78.6371C617.453 77.4922 616.477 76.6115 615.229 75.995C613.982 75.3639 612.529 75.0483 610.87 75.0483C609.182 75.0483 607.707 75.3639 606.445 75.995C605.182 76.6115 604.206 77.4922 603.516 78.6371C602.827 79.7673 602.489 81.0956 602.504 82.6222C602.489 84.178 602.834 85.5357 603.538 86.6953C604.258 87.8549 605.248 88.7576 606.511 89.4034C607.773 90.0492 609.226 90.3722 610.87 90.3722Z" fill="black"/>
<path d="M771.903 116.616C768.997 116.616 766.406 116.117 764.131 115.119C761.871 114.121 760.073 112.734 758.737 110.958C757.416 109.167 756.697 107.09 756.58 104.727H762.128C762.245 106.18 762.744 107.435 763.625 108.492C764.506 109.534 765.658 110.342 767.082 110.914C768.505 111.487 770.083 111.773 771.815 111.773C773.753 111.773 775.47 111.435 776.967 110.76C778.464 110.085 779.639 109.145 780.49 107.942C781.341 106.738 781.767 105.344 781.767 103.759C781.767 102.1 781.356 100.639 780.534 99.3771C779.712 98.1001 778.509 97.102 776.923 96.3828C775.338 95.6636 773.401 95.304 771.111 95.304H767.5V90.4602H771.111C772.902 90.4602 774.472 90.1373 775.822 89.4915C777.188 88.8456 778.252 87.9356 779.015 86.7614C779.793 85.5871 780.182 84.2074 780.182 82.6222C780.182 81.0956 779.844 79.7673 779.169 78.6371C778.494 77.5069 777.54 76.6262 776.307 75.995C775.089 75.3639 773.65 75.0483 771.991 75.0483C770.436 75.0483 768.968 75.3345 767.588 75.907C766.223 76.4647 765.107 77.2794 764.241 78.3509C763.375 79.4077 762.906 80.6847 762.832 82.1818H757.548C757.636 79.8187 758.348 77.7491 759.684 75.973C761.02 74.1823 762.766 72.7879 764.924 71.7898C767.096 70.7917 769.482 70.2926 772.08 70.2926C774.868 70.2926 777.261 70.8577 779.257 71.9879C781.253 73.1035 782.787 74.5786 783.859 76.4134C784.93 78.2481 785.466 80.2296 785.466 82.358C785.466 84.8973 784.798 87.0623 783.462 88.853C782.141 90.6437 780.343 91.884 778.068 92.5739V92.9261C780.916 93.3958 783.139 94.6068 784.739 96.5589C786.339 98.4964 787.139 100.896 787.139 103.759C787.139 106.21 786.471 108.411 785.136 110.364C783.815 112.301 782.009 113.828 779.719 114.943C777.43 116.059 774.824 116.616 771.903 116.616ZM829.976 70.9091V116H824.516V76.6335H824.252L813.243 83.9432V78.3949L824.516 70.9091H829.976Z" fill="black"/>
</svg>
