<svg width="853" height="131" viewBox="0 0 853 131" fill="none" xmlns="http://www.w3.org/2000/svg">
<path d="M40.0669 52.3324H35.5644V39.9331H23.2343V35.4998H35.5644V23.1004H40.0669V35.4998H52.4663V39.9331H40.0669V52.3324ZM76.5419 63H70.7925L88.872 19.7062H64.6968V14.511H94.6214V19.2906L76.5419 63Z" fill="black"/>
<path d="M249.726 63H243.907V53.3715H222.018V48.1762L243.907 14.511H249.726V48.1762H255.198V53.3715H249.726V63ZM243.907 23.7239L227.975 48.1762H243.907V23.7239ZM290.426 63.9698C286.178 63.9698 282.806 62.9076 280.313 60.7834C277.819 58.6591 276.572 55.9114 276.572 52.5402C276.572 51.201 276.78 49.9772 277.196 48.8689L282.599 50.0465C282.275 50.9239 282.114 51.8013 282.114 52.6788C282.114 54.6183 282.853 56.1884 284.33 57.3891C285.808 58.5898 287.817 59.1901 290.357 59.1901C294.097 59.1901 297.053 57.3429 299.223 53.6485C301.44 49.908 302.664 44.9898 302.895 38.894C301.694 41.203 299.962 43.004 297.7 44.2971C295.437 45.5901 293.035 46.2366 290.495 46.2366C287.494 46.2366 284.769 45.5439 282.322 44.1585C279.874 42.7731 277.958 40.8567 276.572 38.4091C275.187 35.9616 274.494 33.1908 274.494 30.0967C274.494 27.0488 275.187 24.278 276.572 21.7843C278.004 19.2444 279.989 17.2356 282.529 15.7578C285.069 14.2801 287.932 13.5412 291.119 13.5412C296.614 13.5412 300.886 15.5038 303.934 19.4291C307.028 23.3544 308.575 28.8499 308.575 35.9154C308.575 41.965 307.674 47.2757 305.873 51.8475C302.595 59.929 297.446 63.9698 290.426 63.9698ZM291.188 41.3185C293.22 41.3185 295.067 40.8798 296.73 40.0023C298.438 39.0787 299.778 37.7626 300.747 36.0539C301.763 34.2991 302.271 32.2441 302.271 29.8889C302.271 27.5799 301.763 25.5711 300.747 23.8624C299.778 22.1076 298.438 20.7684 296.73 19.8448C295.067 18.9212 293.22 18.4594 291.188 18.4594C289.156 18.4594 287.309 18.9212 285.647 19.8448C283.984 20.7684 282.668 22.0845 281.698 23.7931C280.728 25.5018 280.243 27.5337 280.243 29.8889C280.243 33.3986 281.283 36.1925 283.361 38.2706C285.439 40.3025 288.048 41.3185 291.188 41.3185ZM343.872 63.9698C340.594 63.9698 337.73 63.3464 335.283 62.0995C332.835 60.8526 330.965 59.1901 329.672 57.112C328.379 55.0339 327.732 52.7942 327.732 50.3929C327.732 49.146 327.94 47.9915 328.356 46.9293L333.759 48.1762C333.574 48.9151 333.482 49.5847 333.482 50.185C333.482 52.9097 334.429 55.057 336.322 56.6272C338.215 58.1973 340.732 58.9823 343.872 58.9823C347.197 58.9823 349.876 57.874 351.908 55.6574C353.94 53.4407 354.956 50.439 354.956 46.6523C354.956 42.9117 353.986 40.0023 352.046 37.9242C350.107 35.8 347.451 34.7378 344.08 34.7378C341.633 34.7378 339.416 35.4536 337.43 36.8852C335.444 38.2706 333.874 40.0023 332.72 42.0804L328.079 40.7643L330.503 14.511H357.726V19.7062H334.867L333.135 35.9847C334.659 33.9528 336.437 32.4288 338.469 31.4129C340.547 30.3969 342.741 29.8889 345.05 29.8889C348.329 29.8889 351.146 30.6047 353.501 32.0363C355.856 33.4679 357.657 35.4536 358.904 37.9935C360.151 40.4872 360.774 43.3735 360.774 46.6523C360.774 49.9772 360.058 52.9558 358.627 55.5881C357.241 58.2204 355.256 60.2754 352.67 61.7531C350.13 63.2309 347.197 63.9698 343.872 63.9698Z" fill="black"/>
<path d="M292.446 117.929C287.224 117.929 283.13 116.048 280.165 112.287C277.2 108.525 275.717 103.259 275.717 96.4874C275.717 90.6899 276.58 85.6005 278.306 81.2191C279.811 77.4574 281.825 74.5808 284.347 72.5892C286.87 70.5977 289.835 69.602 293.243 69.602C297.27 69.602 300.457 70.6199 302.802 72.6556C305.192 74.6471 306.387 77.2804 306.387 80.5553C306.387 81.8387 306.188 83.0115 305.789 84.0736L300.611 82.9451C300.921 82.1043 301.076 81.2634 301.076 80.4225C301.076 78.5638 300.368 77.0591 298.952 75.9084C297.536 74.7578 295.611 74.1824 293.176 74.1824C289.592 74.1824 286.737 75.9748 284.613 79.5595C282.533 83.1443 281.382 87.8354 281.161 93.6329C282.4 91.4201 284.104 89.6941 286.273 88.455C288.485 87.2158 290.831 86.5962 293.309 86.5962C296.186 86.5962 298.753 87.2601 301.01 88.5877C303.311 89.9154 305.103 91.752 306.387 94.0976C307.714 96.4431 308.378 99.0985 308.378 102.064C308.378 104.985 307.692 107.662 306.32 110.096C304.993 112.486 303.112 114.389 300.678 115.805C298.244 117.221 295.5 117.929 292.446 117.929ZM292.446 113.216C294.349 113.216 296.097 112.774 297.691 111.888C299.284 111.003 300.545 109.742 301.474 108.105C302.404 106.423 302.868 104.476 302.868 102.263C302.868 100.006 302.404 98.0585 301.474 96.421C300.545 94.7393 299.284 93.478 297.691 92.6371C296.142 91.752 294.393 91.3095 292.446 91.3095C290.499 91.3095 288.707 91.752 287.069 92.6371C285.476 93.478 284.192 94.7393 283.219 96.421C282.289 98.0585 281.825 100.006 281.825 102.263C281.825 104.476 282.289 106.423 283.219 108.105C284.192 109.742 285.476 111.003 287.069 111.888C288.707 112.774 290.499 113.216 292.446 113.216ZM341.873 117.929C338.687 117.929 335.921 117.31 333.575 116.071C331.23 114.787 329.437 113.128 328.198 111.092C326.959 109.056 326.339 106.888 326.339 104.586C326.339 103.037 326.583 101.732 327.07 100.67L332.247 101.997C332.026 102.75 331.916 103.546 331.916 104.387C331.916 106.954 332.823 109.056 334.637 110.694C336.496 112.331 338.908 113.15 341.873 113.15C344.794 113.15 347.162 112.331 348.976 110.694C350.835 109.012 351.764 106.688 351.764 103.723C351.764 100.581 350.592 98.2576 348.246 96.7529C345.9 95.204 342.825 94.4295 339.019 94.4295V89.7826C342.559 89.7826 345.192 88.986 346.918 87.3928C348.644 85.7996 349.507 83.8524 349.507 81.551C349.507 79.294 348.755 77.5238 347.25 76.2403C345.79 74.9569 343.776 74.3152 341.209 74.3152C338.819 74.3152 336.85 75.0233 335.301 76.4395C333.796 77.8557 333.044 79.7144 333.044 82.0157C333.044 82.3698 333.066 82.7238 333.11 83.0779C333.199 83.3877 333.31 83.6753 333.442 83.9409L328.264 84.9366C327.91 83.963 327.733 82.9009 327.733 81.7502C327.733 79.5374 328.287 77.5016 329.393 75.6429C330.544 73.7841 332.137 72.3237 334.173 71.2616C336.253 70.1552 338.62 69.602 341.276 69.602C344.108 69.602 346.542 70.0888 348.578 71.0624C350.658 72.036 352.229 73.3858 353.291 75.1118C354.353 76.8378 354.884 78.7629 354.884 80.8872C354.884 83.1885 354.243 85.3128 352.959 87.2601C351.72 89.2073 349.883 90.6235 347.449 91.5086C350.326 92.3495 352.694 93.7878 354.552 95.8236C356.411 97.8593 357.341 100.404 357.341 103.458C357.341 106.379 356.677 108.945 355.349 111.158C354.066 113.327 352.251 115.008 349.906 116.203C347.56 117.354 344.882 117.929 341.873 117.929ZM392.229 117.929C387.007 117.929 382.913 116.048 379.948 112.287C376.983 108.525 375.501 103.259 375.501 96.4874C375.501 90.6899 376.364 85.6005 378.09 81.2191C379.594 77.4574 381.608 74.5808 384.131 72.5892C386.653 70.5977 389.618 69.602 393.026 69.602C397.053 69.602 400.24 70.6199 402.585 72.6556C404.975 74.6471 406.17 77.2804 406.17 80.5553C406.17 81.8387 405.971 83.0115 405.572 84.0736L400.395 82.9451C400.704 82.1043 400.859 81.2634 400.859 80.4225C400.859 78.5638 400.151 77.0591 398.735 75.9084C397.319 74.7578 395.394 74.1824 392.96 74.1824C389.375 74.1824 386.52 75.9748 384.396 79.5595C382.316 83.1443 381.165 87.8354 380.944 93.6329C382.183 91.4201 383.887 89.6941 386.056 88.455C388.268 87.2158 390.614 86.5962 393.092 86.5962C395.969 86.5962 398.536 87.2601 400.793 88.5877C403.094 89.9154 404.887 91.752 406.17 94.0976C407.498 96.4431 408.161 99.0985 408.161 102.064C408.161 104.985 407.475 107.662 406.104 110.096C404.776 112.486 402.895 114.389 400.461 115.805C398.027 117.221 395.283 117.929 392.229 117.929ZM392.229 113.216C394.132 113.216 395.88 112.774 397.474 111.888C399.067 111.003 400.328 109.742 401.258 108.105C402.187 106.423 402.652 104.476 402.652 102.263C402.652 100.006 402.187 98.0585 401.258 96.421C400.328 94.7393 399.067 93.478 397.474 92.6371C395.925 91.752 394.177 91.3095 392.229 91.3095C390.282 91.3095 388.49 91.752 386.852 92.6371C385.259 93.478 383.976 94.7393 383.002 96.421C382.073 98.0585 381.608 100.006 381.608 102.263C381.608 104.476 382.073 106.423 383.002 108.105C383.976 109.742 385.259 111.003 386.852 111.888C388.49 112.774 390.282 113.216 392.229 113.216Z" fill="black"/>
<path d="M536.045 117V113.083L553.902 95.4253C556.248 93.0797 557.908 90.9997 558.881 89.1852C559.899 87.3264 560.408 85.3128 560.408 83.1443C560.408 80.4889 559.567 78.3868 557.885 76.8378C556.204 75.2446 553.902 74.448 550.982 74.448C548.282 74.448 546.069 75.2888 544.343 76.9706C542.617 78.608 541.754 80.7987 541.754 83.5426C541.754 84.649 541.931 85.6668 542.285 86.5962L537.041 87.5256C536.51 86.1537 536.244 84.6711 536.244 83.0779C536.244 80.7323 536.842 78.5195 538.037 76.4395C539.232 74.3595 540.958 72.6999 543.215 71.4607C545.472 70.2215 548.083 69.602 551.048 69.602C554.146 69.602 556.801 70.1773 559.014 71.3279C561.271 72.4343 562.975 73.9612 564.126 75.9084C565.276 77.8557 565.851 80.0906 565.851 82.6132C565.851 85.4898 565.232 88.1452 563.993 90.5792C562.798 92.9691 560.629 95.7129 557.487 98.8108L544.609 111.623H566.051V117H536.045ZM599.745 117.929C595.673 117.929 592.442 116.911 590.053 114.876C587.663 112.84 586.468 110.207 586.468 106.976C586.468 105.693 586.667 104.52 587.065 103.458L592.243 104.586C591.933 105.427 591.779 106.268 591.779 107.109C591.779 108.968 592.487 110.472 593.903 111.623C595.319 112.774 597.244 113.349 599.678 113.349C603.263 113.349 606.095 111.579 608.175 108.038C610.3 104.453 611.472 99.7402 611.694 93.8984C610.543 96.1112 608.883 97.8372 606.715 99.0764C604.546 100.316 602.245 100.935 599.811 100.935C596.934 100.935 594.323 100.271 591.978 98.9436C589.632 97.6159 587.795 95.7793 586.468 93.4338C585.14 91.0882 584.476 88.4328 584.476 85.4677C584.476 82.5468 585.14 79.8915 586.468 77.5016C587.84 75.0676 589.743 73.1424 592.177 71.7262C594.611 70.3101 597.355 69.602 600.408 69.602C605.675 69.602 609.769 71.4828 612.689 75.2446C615.655 79.0063 617.137 84.2728 617.137 91.0439C617.137 96.8415 616.274 101.931 614.548 106.312C611.406 114.057 606.471 117.929 599.745 117.929ZM600.475 96.2219C602.422 96.2219 604.192 95.8014 605.785 94.9606C607.423 94.0755 608.706 92.8142 609.636 91.1767C610.609 89.495 611.096 87.5256 611.096 85.2685C611.096 83.0558 610.609 81.1306 609.636 79.4932C608.706 77.8114 607.423 76.528 605.785 75.6429C604.192 74.7578 602.422 74.3152 600.475 74.3152C598.528 74.3152 596.757 74.7578 595.164 75.6429C593.571 76.528 592.31 77.7893 591.38 79.4268C590.451 81.0642 589.986 83.0115 589.986 85.2685C589.986 88.632 590.982 91.3095 592.973 93.301C594.965 95.2482 597.465 96.2219 600.475 96.2219Z" fill="black"/>
<path d="M759.982 117.929C757.016 117.929 754.361 117.354 752.015 116.203C749.67 115.053 747.833 113.437 746.506 111.357C745.178 109.233 744.514 106.821 744.514 104.122C744.514 101.422 745.222 99.0321 746.638 96.9521C748.099 94.8278 749.98 93.2125 752.281 92.1061C750.334 91.0439 748.785 89.5835 747.634 87.7247C746.528 85.866 745.975 83.8524 745.975 81.6838C745.975 79.3383 746.572 77.2582 747.767 75.4437C748.962 73.585 750.621 72.1467 752.746 71.1288C754.914 70.1109 757.326 69.602 759.982 69.602C762.637 69.602 765.027 70.1109 767.151 71.1288C769.32 72.1467 771.001 73.585 772.196 75.4437C773.391 77.2582 773.989 79.3383 773.989 81.6838C773.989 83.8524 773.413 85.866 772.263 87.7247C771.156 89.5835 769.629 91.0439 767.682 92.1061C769.983 93.2125 771.842 94.8278 773.258 96.9521C774.719 99.0321 775.449 101.422 775.449 104.122C775.449 106.821 774.785 109.233 773.457 111.357C772.13 113.437 770.293 115.053 767.948 116.203C765.602 117.354 762.947 117.929 759.982 117.929ZM759.982 90.1146C762.548 90.1146 764.628 89.3843 766.222 87.9239C767.859 86.4635 768.678 84.4941 768.678 82.0157C768.678 79.5817 767.837 77.6344 766.155 76.174C764.518 74.7135 762.46 73.9833 759.982 73.9833C757.503 73.9833 755.423 74.7135 753.741 76.174C752.104 77.6344 751.285 79.5817 751.285 82.0157C751.285 84.4941 752.082 86.4635 753.675 87.9239C755.313 89.3843 757.415 90.1146 759.982 90.1146ZM759.982 113.216C762.947 113.216 765.359 112.375 767.217 110.694C769.076 108.968 770.005 106.711 770.005 103.922C770.005 101.179 769.032 98.9436 767.085 97.2176C765.182 95.4916 762.814 94.6287 759.982 94.6287C757.149 94.6287 754.759 95.4916 752.812 97.2176C750.909 98.9436 749.958 101.179 749.958 103.922C749.958 106.711 750.887 108.968 752.746 110.694C754.604 112.375 757.016 113.216 759.982 113.216ZM797.327 117V112.088H808.745V77.8336C807.505 79.2497 805.956 80.4225 804.098 81.3519C802.239 82.237 800.225 82.6796 798.057 82.6796V77.6344C800.579 77.6344 802.792 76.9927 804.695 75.7093C806.642 74.3816 808.169 72.6556 809.276 70.5313H814.254V112.088H825.274V117H797.327Z" fill="black"/>
</svg>
