<svg width="82" height="310" viewBox="0 0 82 310" fill="none" xmlns="http://www.w3.org/2000/svg">
<path fill-rule="evenodd" clip-rule="evenodd" d="M74.9681 282.404L76.5841 122.19C76.1162 104.312 53.0284 96.1165 53.0284 85.0433V70.1311V33.3305H53.6938C54.6099 33.3305 55.3586 32.5824 55.3586 31.6671V25.6735C55.3586 24.7582 54.6099 24.0102 53.6938 24.0102H53.0284V20.0156L53.0275 19.9626L53.0256 19.9108L53.0229 19.8589L53.0174 19.8083L53.0109 19.7588L53.004 19.7081L52.9962 19.6587L52.9874 19.6092L52.9764 19.5609L52.9649 19.5126L52.951 19.4643L52.9373 19.416L52.9221 19.3689L52.9046 19.3229L52.888 19.2782L52.8692 19.2334L52.8494 19.1875L52.8286 19.1439H52.8282L52.8071 19.1003H52.8066L52.7091 18.9306C52.4735 18.5619 52.1205 18.2757 51.7035 18.1237L51.659 18.106H51.6585L51.6115 18.0907H51.6111L51.5632 18.0766L51.5164 18.0636H51.5159L51.4676 18.0518L51.4188 18.0413H51.4183L51.3699 18.0318H51.3696L51.3194 18.0236L51.2702 18.0165L51.22 18.0106H51.2195L51.1688 18.0071L51.1183 18.0024H51.1164L51.0658 18.0012L51.0148 18H31.5713L31.4936 18.0012L31.4168 18.0047L31.3408 18.0095L31.2649 18.0165H31.2635L31.1894 18.026L31.0403 18.0471H31.039C29.9788 18.238 29.1054 18.9895 28.741 19.979V19.9802L28.7166 20.0486V20.0497C28.654 20.2358 28.6075 20.4302 28.5827 20.6305L28.5739 20.7047L28.5665 20.7801V20.7813L28.5614 20.8578L28.5592 20.9344L28.5587 21.0121V24.0102H27.8906C26.9762 24.0102 26.2271 24.7582 26.2271 25.6735V31.6671C26.2271 32.5824 26.9762 33.3305 27.8906 33.3305H28.5587V70.1311V85.0433C28.5587 96.4734 4.78112 103.748 5.00152 122.19L6.79891 282.413C6.85133 287.156 10.7324 291.005 15.482 291.005H66.2836C71.0371 291.005 74.9198 287.158 74.9681 282.404Z" fill="#100F0D" fill-opacity="0.5"/>
</svg>
