<svg width="100" height="100" viewBox="0 0 100 100" fill="none" xmlns="http://www.w3.org/2000/svg">
<rect width="100" height="100" transform="translate(-0.000305176)" fill="#F6F6F6"/>
<g clip-path="url(#clip0_34_14)">
<path d="M74.1703 73.5899H25.8303C23.8875 73.5906 21.9937 72.9794 20.4178 71.8432C18.8418 70.707 17.6636 69.1034 17.0503 67.2599C17.0007 67.1096 16.9875 66.9495 17.0119 66.7931C17.0362 66.6366 17.0974 66.4882 17.1903 66.3599C17.2823 66.2307 17.4038 66.1252 17.5446 66.0522C17.6854 65.9791 17.8416 65.9407 18.0003 65.9399H82.0003C82.1589 65.9407 82.3151 65.9791 82.456 66.0522C82.5968 66.1252 82.7183 66.2307 82.8103 66.3599C82.9032 66.4882 82.9644 66.6366 82.9887 66.7931C83.0131 66.9495 82.9999 67.1096 82.9503 67.2599C82.337 69.1034 81.1588 70.707 79.5828 71.8432C78.0069 72.9794 76.1131 73.5906 74.1703 73.5899ZM19.5403 67.9399C20.1728 69.0498 21.0881 69.9722 22.193 70.6133C23.2979 71.2545 24.5529 71.5915 25.8303 71.5899H74.1703C75.4477 71.5915 76.7027 71.2545 77.8076 70.6133C78.9125 69.9722 79.8278 69.0498 80.4603 67.9399H19.5403Z" fill="black"/>
<path d="M79.1803 67.94H20.8203C20.5551 67.94 20.3007 67.8346 20.1132 67.6471C19.9257 67.4595 19.8203 67.2052 19.8203 66.94C19.8309 59.1892 22.9153 51.7591 28.3968 46.2794C33.8784 40.7997 41.3096 37.7179 49.0603 37.71H50.9403C58.6911 37.7179 66.1223 40.7997 71.6038 46.2794C77.0854 51.7591 80.1697 59.1892 80.1803 66.94C80.1803 67.0713 80.1544 67.2013 80.1042 67.3226C80.0539 67.444 79.9803 67.5542 79.8874 67.6471C79.7946 67.7399 79.6843 67.8136 79.563 67.8638C79.4417 67.9141 79.3116 67.94 79.1803 67.94ZM21.8403 65.94H78.1603C77.8916 58.8979 74.9071 52.2333 69.8326 47.3434C64.758 42.4534 57.9875 39.7178 50.9403 39.71H49.0603C42.0131 39.7178 35.2426 42.4534 30.1681 47.3434C25.0935 52.2333 22.1091 58.8979 21.8403 65.94Z" fill="black"/>
<path d="M29.2903 55.19C29.0987 55.1895 28.9113 55.134 28.7503 55.03C28.5278 54.8866 28.3713 54.6607 28.3151 54.4021C28.2588 54.1434 28.3075 53.8729 28.4503 53.65C30.6689 50.1998 33.7188 47.3623 37.3201 45.3984C40.9213 43.4344 44.9583 42.4068 49.0603 42.41C49.3255 42.41 49.5799 42.5154 49.7674 42.7029C49.9549 42.8905 50.0603 43.1448 50.0603 43.41C50.0603 43.6753 49.9549 43.9296 49.7674 44.1171C49.5799 44.3047 49.3255 44.41 49.0603 44.41C45.2931 44.4071 41.5856 45.3506 38.278 47.1538C34.9705 48.957 32.1688 51.5621 30.1303 54.73C30.04 54.8709 29.9157 54.9868 29.769 55.0671C29.6222 55.1475 29.4576 55.1898 29.2903 55.19Z" fill="black"/>
<path d="M50.0003 39.71C48.6851 39.71 47.3994 39.32 46.3058 38.5893C45.2122 37.8586 44.3599 36.82 43.8565 35.6049C43.3532 34.3898 43.2215 33.0527 43.4781 31.7627C43.7347 30.4727 44.3681 29.2878 45.2981 28.3578C46.2281 27.4278 47.413 26.7944 48.703 26.5378C49.993 26.2812 51.3301 26.4129 52.5452 26.9162C53.7603 27.4196 54.7989 28.2719 55.5296 29.3655C56.2603 30.4591 56.6503 31.7448 56.6503 33.06C56.6477 34.8229 55.9462 36.5128 54.6997 37.7594C53.4531 39.0059 51.7632 39.7074 50.0003 39.71ZM50.0003 28.41C49.0807 28.41 48.1816 28.6828 47.4169 29.1937C46.6523 29.7047 46.0563 30.4309 45.7043 31.2806C45.3524 32.1302 45.2603 33.0652 45.4397 33.9672C45.6191 34.8692 46.062 35.6978 46.7123 36.3481C47.3626 36.9984 48.1912 37.4413 49.0932 37.6207C49.9952 37.8001 50.9301 37.708 51.7798 37.3561C52.6295 37.0041 53.3557 36.4081 53.8667 35.6434C54.3776 34.8788 54.6503 33.9797 54.6503 33.06C54.6477 31.8276 54.1569 30.6464 53.2855 29.7749C52.414 28.9034 51.2328 28.4127 50.0003 28.41Z" fill="black"/>
</g>
<defs>
<clipPath id="clip0_34_14">
<rect width="66.0006" height="48" fill="white" transform="translate(17 26)"/>
</clipPath>
</defs>
</svg>
