<svg width="60" height="78" viewBox="0 0 60 78" fill="none" xmlns="http://www.w3.org/2000/svg">
<g clip-path="url(#clip0_84_282)">
<path d="M57.1889 22.3849C54.9072 18.6283 51.7129 16.5911 47.5651 14.6516C46.7828 14.3827 45.6175 14.0812 44.6886 14.1953C44.4441 14.1709 44.0937 14.236 43.784 14.3012C42.4395 8.46666 40.0274 4.68559 36.2545 2.44466C35.3989 1.84979 34.3966 1.4016 33.598 1.1001L33.6143 1.0349C33.4513 0.986011 33.2883 0.945267 33.1254 0.896374L32.9053 0.839332C32.4571 0.692652 32.009 0.562271 31.6097 0.480782C30.4933 0.187424 28.4968 0.00814885 28.4153 0V0.0325954C26.1499 -0.146679 16.7217 0.888225 15.2957 1.92313C11.9628 4.20481 9.55887 7.83105 7.44832 11.4165C5.21553 15.4013 4.13173 19.4432 4.33546 23.1916C4.53103 24.2021 4.92217 25.0985 5.29702 25.9704C5.43555 26.2964 5.57408 26.6142 5.73706 26.9972C5.91633 27.3231 6.18525 27.755 6.40526 28.0972C3.74874 29.9796 1.25519 35.2682 1.10851 35.7816C-0.790172 43.2297 -0.602749 49.5369 4.62067 54.035C5.37036 54.6788 9.70555 58.4273 11.5553 59.3807C12.5088 59.8696 15.0593 59.9348 16.3143 59.6741C17.5447 59.4214 19.4027 59.0384 19.859 59.4133C20.405 59.8533 20.0138 62.2165 19.8427 63.2269C19.7694 63.667 19.7123 64.0418 19.6879 64.3189C19.6227 65.0197 19.476 65.8427 19.3293 66.7228C18.7589 69.9253 18.0581 73.902 20.8695 75.6458C22.4667 76.64 24.4876 77.0637 26.2966 77.2267C27.9182 77.3734 29.3769 77.2348 30.2325 77.2267C32.009 77.2185 32.009 75.8088 32.7098 70.895C32.775 70.4468 33.9321 60.7253 33.9484 56.6753C34.2173 56.6671 34.4781 56.6508 34.6981 56.6182C35.1544 56.6182 35.6108 56.6182 36.0671 56.6182C37.4605 56.6345 38.9029 56.659 40.3452 56.3575C41.6979 56.1456 45.5849 54.4506 46.1228 54.2795C47.068 53.9862 48.0459 53.6846 48.9749 53.1468C52.1366 51.24 54.728 47.7115 56.3496 45.0713C60.9211 37.1099 61.2226 29.0507 57.1971 22.3686L57.1889 22.3849ZM21.4562 13.413C24.2187 7.87994 27.3478 6.7717 29.385 7.7903C31.4304 8.80891 31.0229 15.6702 28.2523 21.2115C25.4899 26.7445 21.4155 28.8632 19.3701 27.8365C17.3247 26.8179 18.6856 18.9461 21.448 13.413H21.4562ZM28.4561 52.7883C26.8181 55.0048 20.625 53.212 14.6193 48.7872C8.6136 44.3542 5.06885 38.9678 6.70677 36.7513C8.34469 34.5348 14.929 35.1297 20.5435 40.7524C25.8158 46.0329 30.094 50.5718 28.4561 52.7883ZM47.6792 47.9316C44.7864 48.5753 40.8342 47.2389 39.0985 39.3997C37.3628 31.5605 38.4954 20.1766 41.3883 19.5409C44.2811 18.8972 48.0378 24.7399 49.7816 32.5791C51.5173 40.4183 50.5802 47.2959 47.6874 47.9397L47.6792 47.9316Z" fill="black"/>
<path d="M24.7724 12.0029C25.2206 11.7992 26.1495 12.8667 26.8422 14.3906C27.5348 15.9144 27.7223 17.316 27.2741 17.5197C26.8259 17.7234 25.8969 16.6559 25.2043 15.1321C24.5116 13.6083 24.3242 12.2067 24.7724 12.0029Z" fill="black"/>
<path d="M23.1342 15.0591C23.5824 14.8554 24.5113 15.9229 25.204 17.4467C25.8966 18.9706 26.0841 20.3722 25.6359 20.5759C25.1877 20.7796 24.2587 19.7121 23.5661 18.1883C22.8734 16.6644 22.686 15.2628 23.1342 15.0591Z" fill="black"/>
<path d="M21.9364 21.2361C21.2438 19.7123 21.0564 18.3107 21.5045 18.107C21.9527 17.9032 22.8817 18.9707 23.5744 20.4946C24.267 22.0184 24.4544 23.42 24.0062 23.6237C23.5581 23.8274 22.6291 22.7599 21.9364 21.2361Z" fill="black"/>
<path d="M40.1736 27.5675C40.4588 26.9889 42.2679 27.3149 44.2073 28.2846C46.1467 29.2543 47.4831 30.5092 47.1979 31.0878C46.9127 31.6664 45.1037 31.3404 43.1642 30.3707C41.2248 29.401 39.8884 28.1461 40.1736 27.5675Z" fill="black"/>
<path d="M41.021 31.9757C41.3062 31.3971 43.1153 31.7231 45.0547 32.6928C46.9941 33.6625 48.3305 34.9174 48.0453 35.496C47.7601 36.0746 45.9511 35.7486 44.0116 34.7789C42.0722 33.8092 40.7358 32.5543 41.021 31.9757Z" fill="black"/>
<path d="M44.8593 39.1876C42.9199 38.2179 41.5835 36.963 41.8687 36.3844C42.1539 35.8058 43.9629 36.1318 45.9023 37.1015C47.8418 38.0712 49.1782 39.3261 48.893 39.9047C48.6078 40.4833 46.7987 40.1573 44.8593 39.1876Z" fill="black"/>
<path d="M24.4055 46.4236C24.5522 47.0022 23.0936 47.8823 21.146 48.3875C19.1984 48.8927 17.4953 48.8275 17.3405 48.249C17.1938 47.6704 18.6524 46.7903 20.6 46.2851C22.5476 45.7798 24.2507 45.845 24.4055 46.4236Z" fill="black"/>
<path d="M21.1138 43.8567C21.2605 44.4353 19.8018 45.3154 17.8542 45.8206C15.9067 46.3258 14.2036 46.2606 14.0487 45.6821C13.9021 45.1035 15.3607 44.2234 17.3083 43.7182C19.2559 43.213 20.959 43.2781 21.1138 43.8567Z" fill="black"/>
<path d="M14.0241 41.1435C15.9717 40.6382 17.6748 40.7034 17.8296 41.282C17.9763 41.8606 16.5176 42.7407 14.5701 43.2459C12.6225 43.7511 10.9194 43.6859 10.7646 43.1074C10.6179 42.5288 12.0765 41.6487 14.0241 41.1435Z" fill="black"/>
</g>
<defs>
<clipPath id="clip0_84_282">
<rect width="60" height="77.2837" fill="white"/>
</clipPath>
</defs>
</svg>
