<svg width="236" height="37" viewBox="0 0 236 37" fill="none" xmlns="http://www.w3.org/2000/svg">
<g clip-path="url(#clip0_17_269)">
<path d="M119.49 18.16C119.49 13.44 119.48 8.72001 119.49 4.00001C119.5 0.830013 121.37 -0.339987 124.33 0.960013C124.91 1.21001 125.44 1.73001 126.04 1.79001C126.79 1.87001 127.73 1.86001 128.32 1.48001C132.75 -1.45999 138.47 0.210013 140.55 6.64001C142.11 11.48 142.02 16.35 140.08 21.09C138.57 24.78 134.58 27.97 129.54 25.63C129.29 25.51 129.02 25.41 128.76 25.32C126.97 24.68 125.96 25.25 125.77 27.18C125.6 29.01 125.59 30.85 125.54 32.69C125.47 35.45 123.39 36.77 120.85 35.63C119.85 35.18 119.5 34.32 119.5 33.28C119.49 29.52 119.48 25.76 119.47 22C119.47 20.72 119.47 19.44 119.47 18.16H119.49ZM135.31 11.85C135.01 10.82 134.71 9.11001 134.02 7.58001C133.34 6.09001 132.11 5.03001 130.25 5.09001C128.42 5.15001 127.35 6.25001 126.52 7.70001C126.4 7.91001 126.31 8.13001 126.23 8.36001C125.1 11.53 125.07 14.73 126.14 17.89C126.46 18.83 127.12 19.74 127.83 20.46C129.24 21.9 131.44 21.82 132.91 20.45C135.22 18.27 135.18 15.39 135.32 11.86L135.31 11.85Z" fill="black"/>
<path d="M235.23 13.18C235.23 16.38 235.26 19.58 235.23 22.78C235.2 25.34 233.26 26.57 230.86 25.57C229.8 25.13 229.47 24.22 229.44 23.14C229.38 20.54 229.31 17.95 229.22 15.35C229.2 14.79 229.2 14.2 229 13.7C228.78 13.16 228.33 12.71 227.98 12.22C227.55 12.59 226.94 12.87 226.71 13.33C226.09 14.58 225.59 15.89 225.13 17.21C224.45 19.17 223.87 21.17 223.22 23.15C222.57 25.12 221.76 25.72 219.71 25.78C218.63 25.81 217.55 25.81 216.47 25.78C214.07 25.74 213.37 25.08 213.36 22.69C213.33 17.97 213.34 13.25 213.34 8.53C213.34 6.81 213.32 5.09 213.36 3.37C213.41 1.3 214.2 0.540004 216.23 0.540004C218.28 0.540004 219.08 1.28 219.15 3.33C219.24 5.81 219.27 8.29 219.38 10.76C219.41 11.51 219.54 12.28 219.78 12.99C220.14 14.02 220.91 14.12 221.53 13.2C222.01 12.48 222.41 11.67 222.7 10.85C223.56 8.4 224.34 5.92 225.16 3.45C225.94 1.12 226.72 0.560004 229.2 0.530004C230.36 0.520004 231.52 0.500004 232.68 0.560004C234.39 0.640004 235.18 1.39 235.21 3.11C235.26 6.47 235.22 9.83 235.22 13.19C235.22 13.19 235.22 13.19 235.23 13.19V13.18Z" fill="black"/>
<path d="M68.8999 25.77C67.1799 25.77 65.4599 25.81 63.7499 25.76C62.0299 25.71 61.2199 24.95 61.2099 23.24C61.1699 16.53 61.1699 9.81002 61.2099 3.10002C61.2099 1.43002 62.0099 0.580017 63.6199 0.580017C67.0899 0.580017 70.5699 0.660017 74.0299 0.820017C75.0399 0.870017 76.0799 1.21002 77.0299 1.59002C80.5299 3.01002 81.5999 7.17002 79.2699 10.14C79.1499 10.3 79.0099 10.45 78.8799 10.6C77.5799 12.14 77.6799 13.15 79.0399 14.68C79.8199 15.55 80.6899 16.51 81.0399 17.58C82.0699 20.66 80.3699 23.96 77.3099 25.04C76.1599 25.44 74.9099 25.65 73.6899 25.74C72.0999 25.86 70.4999 25.77 68.8999 25.77ZM67.6599 18.16C67.6499 20.29 68.7699 21.44 70.8899 21.44C73.0699 21.44 74.6399 20.11 74.6599 18.25C74.6799 16.36 73.0799 14.98 70.8499 14.97C68.7899 14.96 67.6799 16.07 67.6699 18.16H67.6599ZM67.6899 8.15002C67.6999 9.94002 68.7899 11.06 70.4799 11.05C72.2899 11.03 73.8299 9.71002 73.8399 8.14002C73.8599 6.57002 72.3099 5.17002 70.5499 5.17002C68.8099 5.17002 67.6799 6.35002 67.6899 8.15002Z" fill="black"/>
<path d="M171.38 16.24C171.38 18.48 171.41 20.72 171.38 22.96C171.34 25.05 170.47 25.87 168.37 25.73C167.55 25.68 166.68 25.48 165.97 25.1C164.65 24.39 163.45 24.5 162.21 25.18C160.22 26.28 158.13 26.77 155.86 26.25C153.6 25.73 152.1 24.4 151.34 22.22C149.79 17.76 151.62 13.76 156.05 12.15C157.46 11.64 159 11.47 160.48 11.15C161.1 11.02 161.75 10.96 162.36 10.79C164.43 10.22 165.2 8.71998 164.49 6.73998C163.8 4.82998 161.77 3.86998 160.05 4.78998C159.19 5.24998 158.46 5.97998 157.76 6.67998C157 7.43998 156.15 7.78998 155.08 7.77998C152.85 7.73998 151.97 6.49998 152.93 4.46998C153.88 2.44998 155.55 1.03998 157.72 0.619976C159.65 0.239976 161.71 0.0199758 163.64 0.259976C168.43 0.839976 171.16 4.18998 171.36 9.41998C171.45 11.7 171.37 13.98 171.37 16.26C171.37 16.26 171.38 16.26 171.39 16.26L171.38 16.24ZM164.68 17.19C164.68 15.55 163.9 14.62 162.27 14.54C160.29 14.44 158.68 15.23 157.65 16.96C156.79 18.4 157.08 20.29 158.25 21.35C159.4 22.4 161.16 22.43 162.54 21.39C163.92 20.34 164.67 18.94 164.69 17.18L164.68 17.19Z" fill="black"/>
<path d="M49.68 15.84C49.68 18.08 49.7 20.32 49.68 22.56C49.65 25.04 48.32 26.1 45.87 25.67C45.75 25.65 45.62 25.65 45.52 25.59C43.26 24.27 41.18 24.89 38.93 25.85C35.37 27.36 31.75 26.09 30.2 23.09C28.4 19.6 29.27 15.31 32.48 13.31C33.99 12.37 35.85 11.95 37.6 11.42C38.62 11.11 39.74 11.12 40.78 10.86C41.97 10.56 42.89 9.84998 43.14 8.57998C43.43 7.06997 42.74 5.92998 41.55 5.07998C40.51 4.33998 39.36 4.26998 38.28 4.92998C37.58 5.35997 37.06 6.09998 36.35 6.50998C35.45 7.02998 34.46 7.59998 33.47 7.68998C31.52 7.88998 30.68 6.66998 31.33 4.76998C31.98 2.86998 33.38 1.60998 35.21 0.919975C38.06 -0.150025 41 -0.270025 43.92 0.699975C47.39 1.83998 49.52 4.86998 49.66 8.88998C49.74 11.21 49.67 13.53 49.67 15.85C49.67 15.85 49.68 15.85 49.69 15.85L49.68 15.84ZM35.65 18.85C35.67 21.07 37.4 22.5 39.55 22.09C41.75 21.67 43.79 18.43 43.03 16.32C42.8 15.67 42.09 14.96 41.44 14.71C38.8 13.7 35.61 16.04 35.64 18.85H35.65Z" fill="black"/>
<path d="M182.86 13.19C182.86 9.94999 182.86 6.70999 182.86 3.46999C182.86 2.37999 182.99 1.13999 184.14 0.879994C185.31 0.609994 186.67 0.699994 187.83 1.01999C188.33 1.15999 188.72 2.26999 188.85 2.98999C189.08 4.27999 188.98 5.62999 189.22 6.91999C189.34 7.53999 189.86 8.47999 190.3 8.53999C190.87 8.61999 191.77 8.11999 192.12 7.58999C193.02 6.23999 193.72 4.73999 194.47 3.27999C195.78 0.759994 197.99 -0.180006 200.69 0.649994C201.8 0.989994 202.11 1.84999 201.4 3.03999C200.32 4.81999 199.15 6.52999 198.01 8.26999C197.79 8.59999 197.58 8.94999 197.34 9.25999C195.65 11.51 195.73 13.69 197.38 15.98C198.87 18.05 200.18 20.26 201.56 22.42C201.82 22.82 202.06 23.25 202.2 23.7C202.54 24.77 202.06 25.58 200.95 25.67C199.8 25.76 198.63 25.73 197.48 25.62C196.25 25.51 195.5 24.64 194.95 23.63C194.22 22.3 193.52 20.95 192.8 19.61C192.67 19.36 192.58 19.05 192.37 18.9C191.72 18.44 191.03 17.71 190.36 17.71C189.35 17.71 189.25 18.82 189.15 19.64C189.02 20.83 188.97 22.03 188.89 23.23C188.76 25.08 187.94 25.76 185.83 25.75C183.82 25.75 182.92 25.05 182.89 23.25C182.83 19.89 182.87 16.53 182.87 13.17C182.87 13.17 182.86 13.17 182.85 13.17L182.86 13.19Z" fill="black"/>
<path d="M10.1501 26.73C7.88006 26.49 5.71006 26.23 3.69006 25.2C1.97006 24.32 0.780061 22.95 0.180061 21.13C-0.369939 19.48 0.340061 18.49 2.06006 18.31C3.77006 18.13 5.20006 18.55 6.30006 19.97C7.35006 21.31 8.70006 22.08 10.4801 21.8C12.1701 21.54 13.4601 20.29 13.6301 18.79C13.7901 17.27 12.9101 15.93 11.3001 15.25C10.6801 14.99 10.0001 14.78 9.47006 14.4C8.45006 13.66 8.39006 12.61 9.33006 11.76C9.85006 11.28 10.5201 10.97 11.1201 10.57C13.0701 9.28997 13.3201 7.07997 11.6801 5.60997C10.7301 4.75997 9.41006 4.64997 8.24006 5.40997C7.71006 5.74997 7.19006 6.16997 6.79006 6.65997C5.64006 8.04997 4.13006 8.17997 2.53006 7.91997C1.11006 7.68997 0.500061 6.61997 0.970061 5.25997C1.85006 2.71997 3.78006 1.29997 6.23006 0.57997C9.06006 -0.25003 11.9401 -0.17003 14.7501 0.72997C19.3001 2.18997 20.6601 6.48997 17.8301 10.32C16.3701 12.3 16.3101 12.98 18.0401 14.66C21.9701 18.44 20.0401 24.04 15.4001 25.61C13.7201 26.18 11.9101 26.37 10.1601 26.73H10.1501Z" fill="black"/>
<path d="M99.4699 0.550016C102.07 0.550016 104.67 0.500016 107.27 0.570016C108.99 0.610016 109.9 1.81002 109.61 3.47002C109.42 4.55002 108.75 5.16002 107.68 5.31002C106.97 5.41002 106.25 5.45002 105.54 5.56002C103.72 5.84002 102.9 6.62002 102.72 8.43002C102.58 9.82002 102.55 11.22 102.54 12.62C102.51 16.02 102.52 19.42 102.52 22.82C102.52 23.91 102.4 25.15 101.25 25.42C100.08 25.69 98.7199 25.63 97.5499 25.31C96.5899 25.06 96.4799 23.92 96.4699 22.96C96.4699 19 96.4699 15.04 96.4399 11.08C96.4399 10.12 96.3599 9.16002 96.2399 8.21002C96.0299 6.67002 95.2299 5.86002 93.6999 5.60002C92.9899 5.48002 92.2699 5.43002 91.5599 5.34002C90.0699 5.16002 89.2999 4.32002 89.3299 2.89002C89.3599 1.48002 90.1599 0.600016 91.6799 0.570016C94.2799 0.510016 96.8799 0.550016 99.4799 0.550016H99.4699Z" fill="black"/>
<path d="M135.31 11.85C135.17 15.38 135.21 18.26 132.9 20.44C131.44 21.82 129.24 21.89 127.82 20.45C127.11 19.73 126.45 18.83 126.13 17.88C125.06 14.72 125.09 11.52 126.22 8.35C126.3 8.12 126.39 7.9 126.51 7.69C127.35 6.24 128.42 5.13 130.24 5.08C132.1 5.02 133.33 6.08 134.01 7.57C134.71 9.1 135.01 10.82 135.3 11.84L135.31 11.85Z" fill="white"/>
<path d="M67.66 18.16C67.67 16.07 68.79 14.95 70.84 14.97C73.07 14.98 74.67 16.36 74.65 18.25C74.63 20.11 73.07 21.44 70.88 21.44C68.76 21.44 67.64 20.3 67.65 18.16H67.66Z" fill="white"/>
<path d="M67.69 8.13997C67.68 6.33997 68.81 5.15997 70.55 5.15997C72.31 5.15997 73.86 6.55997 73.84 8.12997C73.82 9.68997 72.29 11.02 70.48 11.04C68.79 11.06 67.7 9.92997 67.69 8.13997Z" fill="white"/>
</g>
<defs>
<clipPath id="clip0_17_269">
<rect width="235.24" height="36.03" fill="white"/>
</clipPath>
</defs>
</svg>
